# Blender v2.76 (sub 0) OBJ File: ''
# www.blender.org
mtllib texturedCube2.mtl
o texturedCube2
v 1.000000 -1.000000 1.000000
v -1.000000 -1.000000 -1.000000
v 1.000000 -1.000000 -1.000000
v -1.000000 1.000000 -1.000000
v 0.999999 1.000000 1.000001
v 1.000000 1.000000 -0.999999
v -1.000000 -1.000000 1.000000
v -1.000000 1.000000 1.000000
vt 0.000000 0.000000
vt -1.000000 1.000000
vt 0.000000 1.000000
vt 1.000000 -1.000000
vt 1.000000 -0.000000
vt 0.000000 -1.000000
vt 1.000000 1.000000
vt -1.000000 0.000000
vn 0.000000 -1.000000 -0.000000
vn -0.000000 1.000000 -0.000000
vn 1.000000 0.000000 0.000000
vn 0.000000 -0.000000 1.000000
vn -1.000000 0.000000 0.000000
vn 0.000000 0.000000 -1.000000
usemtl None
s off
f 1/1/1 2/2/1 3/3/1
f 4/1/2 5/4/2 6/5/2
f 6/5/3 1/6/3 3/4/3
f 5/5/4 7/6/4 1/4/4
f 7/1/5 4/7/5 2/5/5
f 3/1/6 4/2/6 6/3/6
f 1/1/1 7/8/1 2/2/1
f 4/1/2 8/6/2 5/4/2
f 6/5/3 5/1/3 1/6/3
f 5/5/4 8/1/4 7/6/4
f 7/1/5 8/3/5 4/7/5
f 3/1/6 2/8/6 4/2/6
