# Blender v2.76 (sub 0) OBJ File: 'skinnedCubeExtendedPosed.blend'
# www.blender.org
mtllib cubeVertexAnimationFrame0.mtl
o Cube_Cube.001
v -0.872883 0.285872 1.057179
v -0.872883 2.285872 1.057179
v -0.872883 0.285872 -0.942821
v -0.872883 2.285872 -0.942821
v 1.127117 0.285872 1.057179
v 1.127117 2.285872 1.057179
v 1.127117 0.285872 -0.942821
v 1.127117 2.285872 -0.942821
v -0.872883 2.797647 1.057179
v -0.872883 2.797647 -0.942821
v 1.127117 2.797647 1.057179
v 1.127117 2.797647 -0.942821
vt 0.000000 0.101875
vt 0.333333 0.101875
vt 0.333333 0.500000
vt 0.000000 0.500000
vt 0.000000 0.601875
vt 0.333333 0.601875
vt 0.333333 1.000000
vt 0.000000 1.000000
vt 0.666667 0.898125
vt 0.333333 0.898125
vt 0.666667 0.500000
vt 0.666667 0.101875
vt 1.000000 0.398125
vt 1.000000 0.796250
vt 0.666667 0.796250
vt 0.666667 0.398125
vt 0.666667 1.000000
vt 0.666667 0.000000
vt 1.000000 0.000000
vt 0.000000 0.000000
vt 0.333333 0.000000
vn -1.000000 0.000000 0.000000
vn 0.000000 0.000000 -1.000000
vn 1.000000 0.000000 0.000000
vn 0.000000 0.000000 1.000000
vn 0.000000 -1.000000 0.000000
vn 0.000000 1.000000 0.000000
usemtl Material
s off
f 2/1/1 4/2/1 3/3/1 1/4/1
f 4/5/2 8/6/2 7/7/2 3/8/2
f 8/9/3 6/10/3 5/3/3 7/11/3
f 6/2/4 2/12/4 1/11/4 5/3/4
f 1/13/5 3/14/5 7/15/5 5/16/5
f 6/10/3 8/9/3 12/17/3 11/7/3
f 11/18/6 12/19/6 10/13/6 9/16/6
f 4/2/1 2/1/1 9/20/1 10/21/1
f 2/12/4 6/2/4 11/21/4 9/18/4
f 8/6/2 4/5/2 10/4/2 12/3/2
